<svg width="200" height="161" viewBox="0 0 200 161" fill="none" xmlns="http://www.w3.org/2000/svg">
<path d="M36.375 152.594C36.5938 152.625 36.7917 152.648 36.9688 152.664C37.1458 152.68 37.3203 152.688 37.4922 152.688C38.4714 152.688 39.2135 152.471 39.7188 152.039C40.2292 151.602 40.4844 150.964 40.4844 150.125C40.4844 149.37 40.2344 148.768 39.7344 148.32C39.2344 147.872 38.5573 147.648 37.7031 147.648C37.4688 147.648 37.2448 147.659 37.0312 147.68C36.8229 147.695 36.6172 147.721 36.4141 147.758C36.3984 148.461 36.388 149.172 36.3828 149.891C36.3776 150.604 36.375 151.505 36.375 152.594ZM33.5938 157.492C33.6354 157.497 33.6745 157.503 33.7109 157.508C33.7526 157.508 33.8151 157.508 33.8984 157.508C34.3151 157.508 34.5964 157.367 34.7422 157.086C34.8932 156.799 34.9688 156.167 34.9688 155.188C34.9688 155.042 34.9661 154.773 34.9609 154.383C34.9557 153.992 34.9531 153.677 34.9531 153.438V148.547C34.9531 148.099 34.8724 147.792 34.7109 147.625C34.5495 147.458 34.2552 147.375 33.8281 147.375H33.7656V146.828C34.1198 146.854 34.4714 146.872 34.8203 146.883C35.1745 146.893 35.5234 146.898 35.8672 146.898C36.2526 146.898 36.7109 146.888 37.2422 146.867C37.7786 146.841 38.125 146.828 38.2812 146.828C39.4219 146.828 40.3333 147.112 41.0156 147.68C41.6979 148.247 42.0391 148.995 42.0391 149.922C42.0391 151.021 41.6641 151.878 40.9141 152.492C40.1693 153.102 39.1146 153.406 37.75 153.406C37.6146 153.406 37.4297 153.398 37.1953 153.383C36.9661 153.367 36.6927 153.344 36.375 153.312V155.664C36.375 156.466 36.4557 156.971 36.6172 157.18C36.7839 157.383 37.1146 157.484 37.6094 157.484C37.625 157.484 37.651 157.482 37.6875 157.477C37.7292 157.471 37.7604 157.469 37.7812 157.469C37.8073 157.469 37.8255 157.471 37.8359 157.477C37.8516 157.477 37.8646 157.479 37.875 157.484L37.8828 158C37.5026 157.979 37.1198 157.964 36.7344 157.953C36.349 157.943 35.9688 157.938 35.5938 157.938C35.4115 157.938 35.1432 157.943 34.7891 157.953C34.4401 157.964 34.0417 157.979 33.5938 158V157.492ZM49.9297 156.867L50.1484 157.359C49.7578 157.641 49.401 157.857 49.0781 158.008C48.7552 158.164 48.4948 158.242 48.2969 158.242C47.9635 158.242 47.7135 158.146 47.5469 157.953C47.3802 157.755 47.2891 157.458 47.2734 157.062C46.7057 157.443 46.2344 157.716 45.8594 157.883C45.4844 158.044 45.1484 158.125 44.8516 158.125C44.3255 158.125 43.8854 157.927 43.5312 157.531C43.1771 157.135 43 156.651 43 156.078C43 155.104 44.0495 154.37 46.1484 153.875C46.6432 153.76 47.0286 153.669 47.3047 153.602C47.3047 153.513 47.3073 153.385 47.3125 153.219C47.3281 152.875 47.3359 152.651 47.3359 152.547C47.3359 152.005 47.224 151.607 47 151.352C46.776 151.091 46.4349 150.961 45.9766 150.961C45.5286 150.961 45.1745 151.044 44.9141 151.211C44.6589 151.372 44.5312 151.594 44.5312 151.875C44.5312 151.901 44.5339 151.938 44.5391 151.984C44.5443 152.026 44.5469 152.057 44.5469 152.078C44.5469 152.24 44.4688 152.375 44.3125 152.484C44.1562 152.589 43.9688 152.641 43.75 152.641C43.5625 152.641 43.4245 152.609 43.3359 152.547C43.2474 152.484 43.2031 152.388 43.2031 152.258C43.2031 151.841 43.5547 151.378 44.2578 150.867C44.9609 150.352 45.6875 150.094 46.4375 150.094C47.1615 150.094 47.7109 150.294 48.0859 150.695C48.4609 151.091 48.6484 151.674 48.6484 152.445C48.6484 152.862 48.6224 153.503 48.5703 154.367C48.5234 155.232 48.5 155.888 48.5 156.336C48.5 156.674 48.5365 156.904 48.6094 157.023C48.6875 157.143 48.8229 157.203 49.0156 157.203C49.099 157.203 49.2057 157.18 49.3359 157.133C49.4714 157.081 49.6693 156.992 49.9297 156.867ZM47.2656 154.227C47.1667 154.253 47.0182 154.292 46.8203 154.344C45.1276 154.807 44.2812 155.354 44.2812 155.984C44.2812 156.328 44.3906 156.609 44.6094 156.828C44.8281 157.042 45.1172 157.148 45.4766 157.148C45.6953 157.148 45.9479 157.091 46.2344 156.977C46.5208 156.862 46.8542 156.68 47.2344 156.43L47.2656 154.227ZM56.6016 156.461L56.9922 157.055C56.487 157.44 55.9896 157.732 55.5 157.93C55.0104 158.128 54.5469 158.227 54.1094 158.227C53.0885 158.227 52.2552 157.862 51.6094 157.133C50.9635 156.398 50.6406 155.461 50.6406 154.32C50.6406 153.138 51.0495 152.138 51.8672 151.32C52.6849 150.503 53.6823 150.094 54.8594 150.094C55.4635 150.094 55.9297 150.18 56.2578 150.352C56.5859 150.518 56.75 150.753 56.75 151.055C56.75 151.273 56.6823 151.464 56.5469 151.625C56.4167 151.781 56.2656 151.859 56.0938 151.859C56.0365 151.859 55.7943 151.729 55.3672 151.469C54.9453 151.203 54.5417 151.07 54.1562 151.07C53.4792 151.07 52.9401 151.315 52.5391 151.805C52.1432 152.289 51.9453 152.951 51.9453 153.789C51.9453 154.846 52.1849 155.672 52.6641 156.266C53.1484 156.854 53.8177 157.148 54.6719 157.148C54.9896 157.148 55.3047 157.094 55.6172 156.984C55.9349 156.875 56.263 156.701 56.6016 156.461ZM57.9219 150.227C58.1562 150.315 58.4974 150.367 58.9453 150.383C59.3984 150.393 59.9792 150.398 60.6875 150.398H61.9844C62.2083 150.398 62.4479 150.398 62.7031 150.398C62.9583 150.393 63.2135 150.385 63.4688 150.375C63.724 150.359 63.9714 150.336 64.2109 150.305C64.4505 150.273 64.6667 150.229 64.8594 150.172C64.8646 150.474 64.875 150.831 64.8906 151.242C64.9115 151.648 64.9818 152.12 65.1016 152.656L64.5703 152.758C64.4818 152.383 64.3828 152.089 64.2734 151.875C64.1693 151.656 64.0339 151.492 63.8672 151.383C63.7057 151.268 63.5078 151.198 63.2734 151.172C63.0391 151.141 62.7474 151.125 62.3984 151.125H62L61.9844 153.359C61.9792 153.943 61.9766 154.451 61.9766 154.883C61.9818 155.31 61.9948 155.674 62.0156 155.977C62.0365 156.279 62.0677 156.529 62.1094 156.727C62.1562 156.919 62.2214 157.07 62.3047 157.18C62.388 157.289 62.4922 157.365 62.6172 157.406C62.7422 157.448 62.8958 157.469 63.0781 157.469H63.2812V158C63.099 157.99 62.8411 157.974 62.5078 157.953C62.1797 157.932 61.7891 157.922 61.3359 157.922C60.8724 157.922 60.487 157.932 60.1797 157.953C59.8724 157.974 59.6094 157.99 59.3906 158V157.469H59.5859C59.7578 157.469 59.9115 157.451 60.0469 157.414C60.1875 157.378 60.3047 157.279 60.3984 157.117C60.4922 156.951 60.5625 156.698 60.6094 156.359C60.6615 156.016 60.6875 155.539 60.6875 154.93V153.359L60.6719 151.125H60.3359C60.0234 151.125 59.7422 151.141 59.4922 151.172C59.2474 151.198 59.0312 151.266 58.8438 151.375C58.6562 151.484 58.4974 151.648 58.3672 151.867C58.237 152.081 58.1354 152.378 58.0625 152.758L57.5781 152.656C57.6198 152.49 57.6562 152.323 57.6875 152.156C57.7188 151.99 57.7474 151.812 57.7734 151.625C57.8047 151.438 57.8307 151.232 57.8516 151.008C57.8776 150.779 57.901 150.518 57.9219 150.227ZM72.6562 153.633H68.8438C68.5469 153.633 68.2734 153.638 68.0234 153.648C67.7734 153.659 67.5417 153.674 67.3281 153.695V153.984C67.3281 155.005 67.5625 155.794 68.0312 156.352C68.5052 156.909 69.1719 157.188 70.0312 157.188C70.4115 157.188 70.7865 157.125 71.1562 157C71.526 156.87 71.9193 156.669 72.3359 156.398L72.6406 156.898C72.1042 157.336 71.5677 157.667 71.0312 157.891C70.5 158.115 69.974 158.227 69.4531 158.227C68.4427 158.227 67.6094 157.867 66.9531 157.148C66.2969 156.424 65.9688 155.497 65.9688 154.367C65.9688 153.164 66.3125 152.154 67 151.336C67.6875 150.518 68.526 150.109 69.5156 150.109C70.4375 150.109 71.1719 150.417 71.7188 151.031C72.2656 151.646 72.5781 152.513 72.6562 153.633ZM71.2109 152.812C71.0547 152.172 70.8177 151.682 70.5 151.344C70.1823 151 69.8021 150.828 69.3594 150.828C68.8594 150.828 68.4297 151.029 68.0703 151.43C67.7161 151.831 67.4844 152.372 67.375 153.055C68.4062 153.055 69.2161 153.036 69.8047 153C70.3984 152.964 70.8672 152.901 71.2109 152.812ZM79.9453 154.453C79.8307 154.448 79.7214 154.445 79.6172 154.445C79.5182 154.44 79.4167 154.438 79.3125 154.438C79.2135 154.432 79.1094 154.43 79 154.43C78.8906 154.424 78.7734 154.422 78.6484 154.422H77.4844C77.25 154.422 77.0286 154.424 76.8203 154.43C76.6172 154.435 76.4062 154.443 76.1875 154.453V155.891C76.1875 156.161 76.1901 156.396 76.1953 156.594C76.2057 156.792 76.2344 156.956 76.2812 157.086C76.3333 157.211 76.4115 157.305 76.5156 157.367C76.625 157.424 76.7786 157.453 76.9766 157.453H77.1797V158C76.9141 157.979 76.6432 157.961 76.3672 157.945C76.0964 157.93 75.8099 157.922 75.5078 157.922C75.2422 157.922 74.9714 157.93 74.6953 157.945C74.4245 157.956 74.1094 157.974 73.75 158V157.453H73.9297C74.1589 157.453 74.3385 157.385 74.4688 157.25C74.599 157.109 74.6953 156.94 74.7578 156.742C74.8255 156.539 74.8672 156.326 74.8828 156.102C74.8984 155.872 74.9062 155.672 74.9062 155.5V152.828C74.9062 151.969 74.8385 151.427 74.7031 151.203C74.6354 151.089 74.5391 151.008 74.4141 150.961C74.2943 150.909 74.138 150.883 73.9453 150.883H73.7656V150.336C74.2188 150.367 74.5729 150.388 74.8281 150.398C75.0833 150.409 75.2891 150.414 75.4453 150.414C75.612 150.414 75.8229 150.409 76.0781 150.398C76.3385 150.388 76.6927 150.367 77.1406 150.336V150.883H76.9219C76.8177 150.883 76.7188 150.914 76.625 150.977C76.5312 151.034 76.4505 151.112 76.3828 151.211C76.2526 151.404 76.1875 151.815 76.1875 152.445V153.641C76.3906 153.646 76.5911 153.654 76.7891 153.664C76.9922 153.669 77.2005 153.672 77.4141 153.672H78.6328C78.8724 153.672 79.0964 153.669 79.3047 153.664C79.513 153.654 79.7266 153.646 79.9453 153.641V152.445C79.9453 152.086 79.9219 151.805 79.875 151.602C79.8281 151.393 79.7656 151.237 79.6875 151.133C79.6146 151.023 79.526 150.956 79.4219 150.93C79.3229 150.898 79.2188 150.883 79.1094 150.883H78.9922V150.336C79.4401 150.367 79.7917 150.388 80.0469 150.398C80.3073 150.409 80.5208 150.414 80.6875 150.414C80.8438 150.414 81.0495 150.409 81.3047 150.398C81.5599 150.388 81.8932 150.367 82.3047 150.336V150.883H82.125C81.901 150.883 81.7266 150.932 81.6016 151.031C81.4818 151.13 81.3932 151.268 81.3359 151.445C81.2839 151.617 81.2526 151.823 81.2422 152.062C81.2318 152.297 81.2266 152.552 81.2266 152.828V155.906C81.2266 156.12 81.2318 156.32 81.2422 156.508C81.2526 156.695 81.2839 156.859 81.3359 157C81.3932 157.141 81.4818 157.253 81.6016 157.336C81.7266 157.414 81.901 157.453 82.125 157.453H82.3047V158C81.8932 157.969 81.5443 157.948 81.2578 157.938C80.9714 157.927 80.75 157.922 80.5938 157.922C80.4583 157.922 80.3255 157.924 80.1953 157.93C80.0703 157.93 79.9375 157.935 79.7969 157.945C79.6615 157.951 79.513 157.958 79.3516 157.969C79.1953 157.979 79.0208 157.99 78.8281 158V157.453H79.0312C79.3281 157.453 79.5547 157.297 79.7109 156.984C79.8672 156.667 79.9453 156.201 79.9453 155.586V154.453ZM89.7422 152.703C89.6068 152.828 89.4688 152.958 89.3281 153.094C89.1875 153.224 89.0391 153.365 88.8828 153.516L87.2656 155.062C87.0104 155.302 86.7682 155.531 86.5391 155.75C86.3099 155.969 86.0781 156.193 85.8438 156.422C85.8438 156.562 85.849 156.695 85.8594 156.82C85.8698 156.945 85.8984 157.055 85.9453 157.148C85.9974 157.242 86.0755 157.318 86.1797 157.375C86.2891 157.427 86.4401 157.453 86.6328 157.453H86.8359V158C86.5703 157.979 86.2995 157.961 86.0234 157.945C85.7526 157.93 85.4661 157.922 85.1641 157.922C84.8984 157.922 84.6276 157.93 84.3516 157.945C84.0807 157.956 83.7656 157.974 83.4062 158V157.453H83.5859C83.8151 157.453 83.9948 157.385 84.125 157.25C84.2552 157.109 84.3516 156.94 84.4141 156.742C84.4818 156.539 84.5234 156.326 84.5391 156.102C84.5547 155.872 84.5625 155.672 84.5625 155.5V152.828C84.5625 151.969 84.4948 151.427 84.3594 151.203C84.2917 151.089 84.1953 151.008 84.0703 150.961C83.9505 150.909 83.7943 150.883 83.6016 150.883H83.4219V150.336C83.875 150.367 84.2292 150.388 84.4844 150.398C84.7396 150.409 84.9453 150.414 85.1016 150.414C85.2682 150.414 85.4792 150.409 85.7344 150.398C85.9948 150.388 86.349 150.367 86.7969 150.336V150.883H86.5781C86.474 150.883 86.375 150.914 86.2812 150.977C86.1875 151.034 86.1068 151.112 86.0391 151.211C85.9089 151.404 85.8438 151.815 85.8438 152.445V155.438C85.9948 155.297 86.1458 155.156 86.2969 155.016C86.4531 154.87 86.6094 154.721 86.7656 154.57L88.4609 152.969L89.7344 151.727C89.724 151.508 89.6953 151.341 89.6484 151.227C89.6016 151.112 89.5391 151.029 89.4609 150.977C89.388 150.924 89.3021 150.896 89.2031 150.891C89.1094 150.885 89.0104 150.883 88.9062 150.883H88.7891V150.336C89.237 150.367 89.5885 150.388 89.8438 150.398C90.1042 150.409 90.3177 150.414 90.4844 150.414C90.6406 150.414 90.8464 150.409 91.1016 150.398C91.3568 150.388 91.6901 150.367 92.1016 150.336V150.883H91.9219C91.6979 150.883 91.5234 150.932 91.3984 151.031C91.2786 151.13 91.1901 151.268 91.1328 151.445C91.0807 151.617 91.0495 151.823 91.0391 152.062C91.0286 152.297 91.0234 152.552 91.0234 152.828V155.906C91.0234 156.12 91.0286 156.32 91.0391 156.508C91.0495 156.695 91.0807 156.859 91.1328 157C91.1901 157.141 91.2786 157.253 91.3984 157.336C91.5234 157.414 91.6979 157.453 91.9219 157.453H92.1016V158C91.6901 157.969 91.3411 157.948 91.0547 157.938C90.7682 157.927 90.5469 157.922 90.3906 157.922C90.2552 157.922 90.1224 157.924 89.9922 157.93C89.8672 157.93 89.7344 157.935 89.5938 157.945C89.4583 157.951 89.3099 157.958 89.1484 157.969C88.9922 157.979 88.8177 157.99 88.625 158V157.453H88.8281C89.125 157.453 89.3516 157.297 89.5078 156.984C89.6641 156.667 89.7422 156.201 89.7422 155.586V152.703ZM98.2031 154.891C97.8958 154.938 97.5885 154.961 97.2812 154.961C97.1458 154.966 97.013 154.966 96.8828 154.961L95.6562 156.836C95.474 157.117 95.2865 157.352 95.0938 157.539C94.901 157.721 94.6953 157.862 94.4766 157.961C94.2578 158.055 94.0182 158.104 93.7578 158.109C93.4974 158.115 93.2083 158.078 92.8906 158V157.578H92.9531C93.0573 157.578 93.1562 157.56 93.25 157.523C93.349 157.487 93.4557 157.419 93.5703 157.32C93.6901 157.216 93.8281 157.07 93.9844 156.883C94.1406 156.695 94.3281 156.451 94.5469 156.148L95.5859 154.727C95.3724 154.648 95.1771 154.557 95 154.453C94.6979 154.276 94.4557 154.049 94.2734 153.773C94.0964 153.497 94.0078 153.167 94.0078 152.781C94.0078 152.344 94.0911 151.971 94.2578 151.664C94.4297 151.357 94.6589 151.104 94.9453 150.906C95.237 150.708 95.5729 150.565 95.9531 150.477C96.3333 150.383 96.7344 150.336 97.1562 150.336C97.5781 150.336 97.9401 150.349 98.2422 150.375C98.5495 150.401 98.7865 150.414 98.9531 150.414C99.1094 150.414 99.3151 150.409 99.5703 150.398C99.8255 150.388 100.159 150.367 100.57 150.336V150.883H100.391C100.167 150.883 99.9922 150.932 99.8672 151.031C99.7474 151.13 99.6589 151.268 99.6016 151.445C99.5495 151.617 99.5182 151.823 99.5078 152.062C99.4974 152.297 99.4922 152.552 99.4922 152.828V155.906C99.4922 156.12 99.4974 156.32 99.5078 156.508C99.5182 156.695 99.5495 156.859 99.6016 157C99.6589 157.141 99.7474 157.253 99.8672 157.336C99.9922 157.414 100.167 157.453 100.391 157.453H100.57V158C100.159 157.969 99.8099 157.948 99.5234 157.938C99.237 157.927 99.0156 157.922 98.8594 157.922C98.724 157.922 98.5911 157.924 98.4609 157.93C98.3359 157.93 98.2031 157.935 98.0625 157.945C97.9271 157.951 97.7786 157.958 97.6172 157.969C97.4609 157.979 97.2865 157.99 97.0938 158V157.453H97.2969C97.599 157.453 97.8229 157.297 97.9688 156.984C98.1198 156.667 98.2005 156.201 98.2109 155.586L98.2031 154.891ZM98.1953 151.172C98.0703 151.13 97.9089 151.099 97.7109 151.078C97.513 151.057 97.3359 151.047 97.1797 151.047C96.9922 151.047 96.7917 151.076 96.5781 151.133C96.3698 151.185 96.1745 151.276 95.9922 151.406C95.8151 151.536 95.6667 151.708 95.5469 151.922C95.4323 152.135 95.375 152.401 95.375 152.719C95.375 153.031 95.4375 153.289 95.5625 153.492C95.6875 153.695 95.8464 153.857 96.0391 153.977C96.237 154.096 96.4557 154.182 96.6953 154.234C96.9349 154.281 97.1719 154.305 97.4062 154.305C97.5833 154.305 97.737 154.297 97.8672 154.281C98.0026 154.26 98.1172 154.245 98.2109 154.234L98.1953 151.172ZM107.141 156.289C107.406 155.768 107.628 155.177 107.805 154.516C107.982 153.849 108.117 153.091 108.211 152.242C108.227 152.112 108.234 151.969 108.234 151.812C108.234 151.651 108.211 151.503 108.164 151.367C108.117 151.232 108.036 151.117 107.922 151.023C107.807 150.93 107.641 150.883 107.422 150.883H107.242V150.336C107.497 150.346 107.721 150.357 107.914 150.367C108.112 150.372 108.307 150.378 108.5 150.383C108.698 150.388 108.906 150.393 109.125 150.398C109.349 150.404 109.612 150.406 109.914 150.406C110.221 150.406 110.542 150.406 110.875 150.406C111.214 150.401 111.547 150.396 111.875 150.391C112.208 150.385 112.529 150.378 112.836 150.367C113.148 150.357 113.432 150.346 113.688 150.336V150.883H113.508C113.284 150.883 113.109 150.932 112.984 151.031C112.865 151.13 112.776 151.268 112.719 151.445C112.667 151.617 112.635 151.823 112.625 152.062C112.615 152.297 112.609 152.552 112.609 152.828V154.695L112.633 156.609C112.633 156.755 112.648 156.872 112.68 156.961C112.711 157.044 112.753 157.109 112.805 157.156C112.857 157.198 112.919 157.224 112.992 157.234C113.065 157.245 113.141 157.245 113.219 157.234L113.93 157.172C113.898 157.615 113.875 157.997 113.859 158.32C113.844 158.648 113.833 158.938 113.828 159.188C113.823 159.438 113.82 159.659 113.82 159.852C113.826 160.049 113.833 160.237 113.844 160.414L113.273 160.477C113.253 159.992 113.198 159.602 113.109 159.305C113.021 159.013 112.914 158.781 112.789 158.609C112.664 158.438 112.526 158.312 112.375 158.234C112.229 158.161 112.083 158.104 111.938 158.062C111.875 158.042 111.799 158.023 111.711 158.008C111.628 157.992 111.505 157.979 111.344 157.969C111.182 157.953 110.971 157.943 110.711 157.938C110.451 157.927 110.112 157.922 109.695 157.922C109.279 157.922 108.943 157.927 108.688 157.938C108.438 157.943 108.24 157.953 108.094 157.969C107.948 157.979 107.839 157.992 107.766 158.008C107.693 158.023 107.63 158.042 107.578 158.062C107.469 158.104 107.349 158.159 107.219 158.227C107.089 158.294 106.966 158.409 106.852 158.57C106.737 158.737 106.635 158.964 106.547 159.25C106.464 159.542 106.411 159.93 106.391 160.414L105.82 160.477C105.826 160.299 105.831 160.107 105.836 159.898C105.841 159.695 105.841 159.461 105.836 159.195C105.831 158.935 105.82 158.635 105.805 158.297C105.789 157.964 105.766 157.576 105.734 157.133L106.266 157.195C106.427 157.216 106.576 157.146 106.711 156.984C106.846 156.818 106.99 156.586 107.141 156.289ZM107.5 157.203C107.802 157.219 108.133 157.229 108.492 157.234C108.852 157.24 109.198 157.242 109.531 157.242C109.781 157.242 110.062 157.24 110.375 157.234C110.688 157.229 111 157.219 111.312 157.203L111.328 153.539V151.148C111.24 151.143 111.135 151.138 111.016 151.133C110.896 151.122 110.773 151.117 110.648 151.117C110.523 151.112 110.404 151.109 110.289 151.109C110.18 151.104 110.089 151.102 110.016 151.102C109.865 151.102 109.719 151.107 109.578 151.117C109.438 151.122 109.279 151.133 109.102 151.148C109.055 151.664 108.995 152.18 108.922 152.695C108.854 153.211 108.76 153.721 108.641 154.227C108.521 154.732 108.367 155.234 108.18 155.734C107.997 156.229 107.771 156.719 107.5 157.203ZM117.32 152.242C117.331 152.065 117.341 151.896 117.352 151.734C117.362 151.568 117.346 151.422 117.305 151.297C117.268 151.172 117.195 151.073 117.086 151C116.977 150.922 116.812 150.883 116.594 150.883H116.414V150.336C116.669 150.346 116.896 150.357 117.094 150.367C117.297 150.372 117.5 150.378 117.703 150.383C117.906 150.388 118.12 150.393 118.344 150.398C118.573 150.404 118.839 150.406 119.141 150.406C120.375 150.406 121.5 150.383 122.516 150.336V150.883H122.336C122.112 150.883 121.938 150.932 121.812 151.031C121.693 151.13 121.604 151.268 121.547 151.445C121.495 151.617 121.464 151.823 121.453 152.062C121.443 152.297 121.438 152.552 121.438 152.828V155.906C121.438 156.12 121.443 156.32 121.453 156.508C121.464 156.695 121.495 156.859 121.547 157C121.604 157.141 121.693 157.253 121.812 157.336C121.938 157.414 122.112 157.453 122.336 157.453H122.516V158C122.104 157.969 121.755 157.948 121.469 157.938C121.182 157.927 120.961 157.922 120.805 157.922C120.721 157.922 120.63 157.924 120.531 157.93C120.432 157.93 120.326 157.932 120.211 157.938C120.096 157.943 119.943 157.951 119.75 157.961C119.562 157.971 119.328 157.984 119.047 158V157.453H119.25C119.547 157.453 119.771 157.297 119.922 156.984C120.078 156.667 120.156 156.201 120.156 155.586V151.18C119.969 151.164 119.797 151.154 119.641 151.148C119.49 151.138 119.336 151.133 119.18 151.133C119.018 151.133 118.857 151.138 118.695 151.148C118.534 151.154 118.359 151.164 118.172 151.18C118.115 151.706 118.057 152.268 118 152.867C117.943 153.461 117.857 154.065 117.742 154.68C117.638 155.227 117.523 155.716 117.398 156.148C117.273 156.576 117.125 156.938 116.953 157.234C116.786 157.531 116.596 157.758 116.383 157.914C116.169 158.07 115.922 158.148 115.641 158.148C115.365 158.148 115.141 158.068 114.969 157.906C114.797 157.745 114.711 157.529 114.711 157.258C114.711 157.148 114.724 157.044 114.75 156.945C114.776 156.846 114.815 156.76 114.867 156.688C114.919 156.609 114.987 156.549 115.07 156.508C115.154 156.461 115.255 156.438 115.375 156.438C115.484 156.438 115.57 156.458 115.633 156.5C115.701 156.542 115.758 156.589 115.805 156.641C115.852 156.693 115.896 156.74 115.938 156.781C115.979 156.823 116.031 156.844 116.094 156.844C116.177 156.844 116.255 156.807 116.328 156.734C116.406 156.661 116.479 156.542 116.547 156.375C116.62 156.203 116.693 155.979 116.766 155.703C116.839 155.427 116.914 155.083 116.992 154.672C117.029 154.484 117.062 154.286 117.094 154.078C117.13 153.87 117.161 153.659 117.188 153.445C117.219 153.232 117.245 153.023 117.266 152.82C117.292 152.612 117.31 152.419 117.32 152.242ZM128.609 154.891C128.302 154.938 127.995 154.961 127.688 154.961C127.552 154.966 127.419 154.966 127.289 154.961L126.062 156.836C125.88 157.117 125.693 157.352 125.5 157.539C125.307 157.721 125.102 157.862 124.883 157.961C124.664 158.055 124.424 158.104 124.164 158.109C123.904 158.115 123.615 158.078 123.297 158V157.578H123.359C123.464 157.578 123.562 157.56 123.656 157.523C123.755 157.487 123.862 157.419 123.977 157.32C124.096 157.216 124.234 157.07 124.391 156.883C124.547 156.695 124.734 156.451 124.953 156.148L125.992 154.727C125.779 154.648 125.583 154.557 125.406 154.453C125.104 154.276 124.862 154.049 124.68 153.773C124.503 153.497 124.414 153.167 124.414 152.781C124.414 152.344 124.497 151.971 124.664 151.664C124.836 151.357 125.065 151.104 125.352 150.906C125.643 150.708 125.979 150.565 126.359 150.477C126.74 150.383 127.141 150.336 127.562 150.336C127.984 150.336 128.346 150.349 128.648 150.375C128.956 150.401 129.193 150.414 129.359 150.414C129.516 150.414 129.721 150.409 129.977 150.398C130.232 150.388 130.565 150.367 130.977 150.336V150.883H130.797C130.573 150.883 130.398 150.932 130.273 151.031C130.154 151.13 130.065 151.268 130.008 151.445C129.956 151.617 129.924 151.823 129.914 152.062C129.904 152.297 129.898 152.552 129.898 152.828V155.906C129.898 156.12 129.904 156.32 129.914 156.508C129.924 156.695 129.956 156.859 130.008 157C130.065 157.141 130.154 157.253 130.273 157.336C130.398 157.414 130.573 157.453 130.797 157.453H130.977V158C130.565 157.969 130.216 157.948 129.93 157.938C129.643 157.927 129.422 157.922 129.266 157.922C129.13 157.922 128.997 157.924 128.867 157.93C128.742 157.93 128.609 157.935 128.469 157.945C128.333 157.951 128.185 157.958 128.023 157.969C127.867 157.979 127.693 157.99 127.5 158V157.453H127.703C128.005 157.453 128.229 157.297 128.375 156.984C128.526 156.667 128.607 156.201 128.617 155.586L128.609 154.891ZM128.602 151.172C128.477 151.13 128.315 151.099 128.117 151.078C127.919 151.057 127.742 151.047 127.586 151.047C127.398 151.047 127.198 151.076 126.984 151.133C126.776 151.185 126.581 151.276 126.398 151.406C126.221 151.536 126.073 151.708 125.953 151.922C125.839 152.135 125.781 152.401 125.781 152.719C125.781 153.031 125.844 153.289 125.969 153.492C126.094 153.695 126.253 153.857 126.445 153.977C126.643 154.096 126.862 154.182 127.102 154.234C127.341 154.281 127.578 154.305 127.812 154.305C127.99 154.305 128.143 154.297 128.273 154.281C128.409 154.26 128.523 154.245 128.617 154.234L128.602 151.172ZM142.461 156.461L142.852 157.055C142.346 157.44 141.849 157.732 141.359 157.93C140.87 158.128 140.406 158.227 139.969 158.227C138.948 158.227 138.115 157.862 137.469 157.133C136.823 156.398 136.5 155.461 136.5 154.32C136.5 153.138 136.909 152.138 137.727 151.32C138.544 150.503 139.542 150.094 140.719 150.094C141.323 150.094 141.789 150.18 142.117 150.352C142.445 150.518 142.609 150.753 142.609 151.055C142.609 151.273 142.542 151.464 142.406 151.625C142.276 151.781 142.125 151.859 141.953 151.859C141.896 151.859 141.654 151.729 141.227 151.469C140.805 151.203 140.401 151.07 140.016 151.07C139.339 151.07 138.799 151.315 138.398 151.805C138.003 152.289 137.805 152.951 137.805 153.789C137.805 154.846 138.044 155.672 138.523 156.266C139.008 156.854 139.677 157.148 140.531 157.148C140.849 157.148 141.164 157.094 141.477 156.984C141.794 156.875 142.122 156.701 142.461 156.461ZM150.648 156.867L150.867 157.359C150.477 157.641 150.12 157.857 149.797 158.008C149.474 158.164 149.214 158.242 149.016 158.242C148.682 158.242 148.432 158.146 148.266 157.953C148.099 157.755 148.008 157.458 147.992 157.062C147.424 157.443 146.953 157.716 146.578 157.883C146.203 158.044 145.867 158.125 145.57 158.125C145.044 158.125 144.604 157.927 144.25 157.531C143.896 157.135 143.719 156.651 143.719 156.078C143.719 155.104 144.768 154.37 146.867 153.875C147.362 153.76 147.747 153.669 148.023 153.602C148.023 153.513 148.026 153.385 148.031 153.219C148.047 152.875 148.055 152.651 148.055 152.547C148.055 152.005 147.943 151.607 147.719 151.352C147.495 151.091 147.154 150.961 146.695 150.961C146.247 150.961 145.893 151.044 145.633 151.211C145.378 151.372 145.25 151.594 145.25 151.875C145.25 151.901 145.253 151.938 145.258 151.984C145.263 152.026 145.266 152.057 145.266 152.078C145.266 152.24 145.188 152.375 145.031 152.484C144.875 152.589 144.688 152.641 144.469 152.641C144.281 152.641 144.143 152.609 144.055 152.547C143.966 152.484 143.922 152.388 143.922 152.258C143.922 151.841 144.273 151.378 144.977 150.867C145.68 150.352 146.406 150.094 147.156 150.094C147.88 150.094 148.43 150.294 148.805 150.695C149.18 151.091 149.367 151.674 149.367 152.445C149.367 152.862 149.341 153.503 149.289 154.367C149.242 155.232 149.219 155.888 149.219 156.336C149.219 156.674 149.255 156.904 149.328 157.023C149.406 157.143 149.542 157.203 149.734 157.203C149.818 157.203 149.924 157.18 150.055 157.133C150.19 157.081 150.388 156.992 150.648 156.867ZM147.984 154.227C147.885 154.253 147.737 154.292 147.539 154.344C145.846 154.807 145 155.354 145 155.984C145 156.328 145.109 156.609 145.328 156.828C145.547 157.042 145.836 157.148 146.195 157.148C146.414 157.148 146.667 157.091 146.953 156.977C147.24 156.862 147.573 156.68 147.953 156.43L147.984 154.227ZM152.406 156.289C152.672 155.768 152.893 155.177 153.07 154.516C153.247 153.849 153.383 153.091 153.477 152.242C153.492 152.112 153.5 151.969 153.5 151.812C153.5 151.651 153.477 151.503 153.43 151.367C153.383 151.232 153.302 151.117 153.188 151.023C153.073 150.93 152.906 150.883 152.688 150.883H152.508V150.336C152.763 150.346 152.987 150.357 153.18 150.367C153.378 150.372 153.573 150.378 153.766 150.383C153.964 150.388 154.172 150.393 154.391 150.398C154.615 150.404 154.878 150.406 155.18 150.406C155.487 150.406 155.807 150.406 156.141 150.406C156.479 150.401 156.812 150.396 157.141 150.391C157.474 150.385 157.794 150.378 158.102 150.367C158.414 150.357 158.698 150.346 158.953 150.336V150.883H158.773C158.549 150.883 158.375 150.932 158.25 151.031C158.13 151.13 158.042 151.268 157.984 151.445C157.932 151.617 157.901 151.823 157.891 152.062C157.88 152.297 157.875 152.552 157.875 152.828V154.695L157.898 156.609C157.898 156.755 157.914 156.872 157.945 156.961C157.977 157.044 158.018 157.109 158.07 157.156C158.122 157.198 158.185 157.224 158.258 157.234C158.331 157.245 158.406 157.245 158.484 157.234L159.195 157.172C159.164 157.615 159.141 157.997 159.125 158.32C159.109 158.648 159.099 158.938 159.094 159.188C159.089 159.438 159.086 159.659 159.086 159.852C159.091 160.049 159.099 160.237 159.109 160.414L158.539 160.477C158.518 159.992 158.464 159.602 158.375 159.305C158.286 159.013 158.18 158.781 158.055 158.609C157.93 158.438 157.792 158.312 157.641 158.234C157.495 158.161 157.349 158.104 157.203 158.062C157.141 158.042 157.065 158.023 156.977 158.008C156.893 157.992 156.771 157.979 156.609 157.969C156.448 157.953 156.237 157.943 155.977 157.938C155.716 157.927 155.378 157.922 154.961 157.922C154.544 157.922 154.208 157.927 153.953 157.938C153.703 157.943 153.505 157.953 153.359 157.969C153.214 157.979 153.104 157.992 153.031 158.008C152.958 158.023 152.896 158.042 152.844 158.062C152.734 158.104 152.615 158.159 152.484 158.227C152.354 158.294 152.232 158.409 152.117 158.57C152.003 158.737 151.901 158.964 151.812 159.25C151.729 159.542 151.677 159.93 151.656 160.414L151.086 160.477C151.091 160.299 151.096 160.107 151.102 159.898C151.107 159.695 151.107 159.461 151.102 159.195C151.096 158.935 151.086 158.635 151.07 158.297C151.055 157.964 151.031 157.576 151 157.133L151.531 157.195C151.693 157.216 151.841 157.146 151.977 156.984C152.112 156.818 152.255 156.586 152.406 156.289ZM152.766 157.203C153.068 157.219 153.398 157.229 153.758 157.234C154.117 157.24 154.464 157.242 154.797 157.242C155.047 157.242 155.328 157.24 155.641 157.234C155.953 157.229 156.266 157.219 156.578 157.203L156.594 153.539V151.148C156.505 151.143 156.401 151.138 156.281 151.133C156.161 151.122 156.039 151.117 155.914 151.117C155.789 151.112 155.669 151.109 155.555 151.109C155.445 151.104 155.354 151.102 155.281 151.102C155.13 151.102 154.984 151.107 154.844 151.117C154.703 151.122 154.544 151.133 154.367 151.148C154.32 151.664 154.26 152.18 154.188 152.695C154.12 153.211 154.026 153.721 153.906 154.227C153.786 154.732 153.633 155.234 153.445 155.734C153.263 156.229 153.036 156.719 152.766 157.203ZM167.258 156.867L167.477 157.359C167.086 157.641 166.729 157.857 166.406 158.008C166.083 158.164 165.823 158.242 165.625 158.242C165.292 158.242 165.042 158.146 164.875 157.953C164.708 157.755 164.617 157.458 164.602 157.062C164.034 157.443 163.562 157.716 163.188 157.883C162.812 158.044 162.477 158.125 162.18 158.125C161.654 158.125 161.214 157.927 160.859 157.531C160.505 157.135 160.328 156.651 160.328 156.078C160.328 155.104 161.378 154.37 163.477 153.875C163.971 153.76 164.357 153.669 164.633 153.602C164.633 153.513 164.635 153.385 164.641 153.219C164.656 152.875 164.664 152.651 164.664 152.547C164.664 152.005 164.552 151.607 164.328 151.352C164.104 151.091 163.763 150.961 163.305 150.961C162.857 150.961 162.503 151.044 162.242 151.211C161.987 151.372 161.859 151.594 161.859 151.875C161.859 151.901 161.862 151.938 161.867 151.984C161.872 152.026 161.875 152.057 161.875 152.078C161.875 152.24 161.797 152.375 161.641 152.484C161.484 152.589 161.297 152.641 161.078 152.641C160.891 152.641 160.753 152.609 160.664 152.547C160.576 152.484 160.531 152.388 160.531 152.258C160.531 151.841 160.883 151.378 161.586 150.867C162.289 150.352 163.016 150.094 163.766 150.094C164.49 150.094 165.039 150.294 165.414 150.695C165.789 151.091 165.977 151.674 165.977 152.445C165.977 152.862 165.951 153.503 165.898 154.367C165.852 155.232 165.828 155.888 165.828 156.336C165.828 156.674 165.865 156.904 165.938 157.023C166.016 157.143 166.151 157.203 166.344 157.203C166.427 157.203 166.534 157.18 166.664 157.133C166.799 157.081 166.997 156.992 167.258 156.867ZM164.594 154.227C164.495 154.253 164.346 154.292 164.148 154.344C162.456 154.807 161.609 155.354 161.609 155.984C161.609 156.328 161.719 156.609 161.938 156.828C162.156 157.042 162.445 157.148 162.805 157.148C163.023 157.148 163.276 157.091 163.562 156.977C163.849 156.862 164.182 156.68 164.562 156.43L164.594 154.227Z" fill="#4F4F4F" fill-opacity="0.93"/>
<path d="M24.04 129.48H25.08V136H5.92V134.96L8.12 134.72C8.54667 134.667 8.8 134.56 8.88 134.4C8.96 134.24 9 133.693 9 132.76V112.04C9 111.107 8.96 110.56 8.88 110.4C8.8 110.24 8.54667 110.133 8.12 110.08L5.92 109.88V108.8H24.56V115.32H23.56L22.4 111.12C22.32 110.8 22.2267 110.573 22.12 110.44C22.04 110.28 21.8667 110.187 21.6 110.16C21.3333 110.107 20.88 110.08 20.24 110.08H12.48V121.64H17.84C18.48 121.64 18.9333 121.627 19.2 121.6C19.4667 121.547 19.64 121.453 19.72 121.32C19.8267 121.16 19.92 120.92 20 120.6L20.76 117.6H21.8V126.96H20.76L20 123.96C19.92 123.64 19.8267 123.413 19.72 123.28C19.64 123.12 19.4667 123.027 19.2 123C18.9333 122.947 18.48 122.92 17.84 122.92H12.48V134.72H20.72C21.36 134.72 21.8133 134.707 22.08 134.68C22.3467 134.627 22.52 134.533 22.6 134.4C22.7067 134.24 22.8 134 22.88 133.68L24.04 129.48ZM44.9231 119.2L39.0831 136H36.4831L30.6031 119.2C30.3365 118.427 30.1365 117.96 30.0031 117.8C29.8698 117.64 29.5898 117.533 29.1631 117.48L27.1231 117.28V116.2H36.2431V117.28L34.2031 117.48C33.7765 117.533 33.5498 117.64 33.5231 117.8C33.4965 117.933 33.6165 118.4 33.8831 119.2L38.7231 133.12L43.4831 119.2C43.7498 118.4 43.8698 117.933 43.8431 117.8C43.8165 117.64 43.5898 117.533 43.1631 117.48L41.0831 117.28V116.2H48.3631V117.28L46.3231 117.48C45.8965 117.533 45.6165 117.64 45.4831 117.8C45.3765 117.933 45.1898 118.4 44.9231 119.2ZM65.9556 131.44C65.4756 133.253 64.569 134.533 63.2356 135.28C61.929 136.027 60.4756 136.4 58.8756 136.4C55.9156 136.4 53.7023 135.507 52.2356 133.72C50.769 131.907 50.0356 129.493 50.0356 126.48V125.68C50.0356 122.693 50.7423 120.307 52.1556 118.52C53.569 116.707 55.6223 115.8 58.3156 115.8C59.7556 115.8 61.0623 116.093 62.2356 116.68C63.4356 117.267 64.3823 118.133 65.0756 119.28C65.7956 120.427 66.1556 121.853 66.1556 123.56C66.1556 124.36 66.0756 125.2 65.9156 126.08H53.6356V127.28C53.6356 130.08 54.0623 132.093 54.9156 133.32C55.7956 134.52 57.209 135.12 59.1556 135.12C60.3823 135.12 61.3956 134.8 62.1956 134.16C63.0223 133.52 63.569 132.413 63.8356 130.84L65.9556 131.44ZM58.3156 117.08C56.7423 117.08 55.569 117.68 54.7956 118.88C54.0223 120.08 53.6356 122.053 53.6356 124.8H62.6356V124.68C62.689 124.333 62.729 124 62.7556 123.68C62.7823 123.333 62.7956 123.027 62.7956 122.76C62.7956 120.76 62.3823 119.32 61.5556 118.44C60.729 117.533 59.649 117.08 58.3156 117.08ZM69.9313 117.28V116.2H76.0913V119.4C77.0246 118.147 77.9579 117.24 78.8913 116.68C79.8513 116.093 80.8246 115.8 81.8113 115.8C82.6646 115.8 83.4646 116.053 84.2113 116.56C84.9579 117.067 85.5846 117.88 86.0913 119L83.4913 120.56C83.0913 119.6 82.6379 118.933 82.1313 118.56C81.6246 118.187 81.0646 118 80.4513 118C79.7846 118 79.1179 118.213 78.4513 118.64C77.8113 119.067 77.0913 119.867 76.2913 121.04V132.76C76.2913 133.693 76.3313 134.253 76.4113 134.44C76.4913 134.6 76.7446 134.693 77.1713 134.72L80.1713 134.96V136H69.9313V134.96L72.1313 134.72C72.5579 134.667 72.8113 134.56 72.8913 134.4C72.9713 134.24 73.0113 133.693 73.0113 132.76V119.44C73.0113 118.507 72.9713 117.96 72.8913 117.8C72.8113 117.64 72.5579 117.533 72.1313 117.48L69.9313 117.28ZM100.989 124.76V123.68H111.189V124.76L108.989 124.96C108.563 125.013 108.309 125.12 108.229 125.28C108.149 125.44 108.109 125.987 108.109 126.92V136H107.149C106.643 135.227 106.043 134.613 105.349 134.16C104.576 134.853 103.669 135.4 102.629 135.8C101.616 136.2 100.443 136.4 99.1094 136.4C96.976 136.4 95.1627 135.88 93.6694 134.84C92.176 133.773 91.0294 132.293 90.2294 130.4C89.456 128.507 89.0694 126.307 89.0694 123.8V120.8C89.0694 118.347 89.456 116.187 90.2294 114.32C91.0294 112.453 92.1894 111 93.7094 109.96C95.256 108.92 97.1227 108.4 99.3094 108.4C101.416 108.4 103.149 108.8 104.509 109.6C105.896 110.373 106.883 111.4 107.469 112.68C108.083 113.96 108.283 115.333 108.069 116.8L104.629 117.64C104.923 115.08 104.603 113.12 103.669 111.76C102.736 110.373 101.283 109.68 99.3094 109.68C97.176 109.68 95.5627 110.427 94.4694 111.92C93.4027 113.413 92.8694 115.787 92.8694 119.04V125.72C92.8694 128.973 93.416 131.36 94.5094 132.88C95.6294 134.373 97.2694 135.12 99.4294 135.12C100.523 135.12 101.536 134.92 102.469 134.52C103.429 134.12 104.229 133.48 104.869 132.6V126.92C104.869 125.987 104.829 125.44 104.749 125.28C104.669 125.093 104.416 124.987 103.989 124.96L100.989 124.76ZM113.486 117.28V116.2H119.646V119.4C120.579 118.147 121.513 117.24 122.446 116.68C123.406 116.093 124.379 115.8 125.366 115.8C126.219 115.8 127.019 116.053 127.766 116.56C128.513 117.067 129.139 117.88 129.646 119L127.046 120.56C126.646 119.6 126.193 118.933 125.686 118.56C125.179 118.187 124.619 118 124.006 118C123.339 118 122.673 118.213 122.006 118.64C121.366 119.067 120.646 119.867 119.846 121.04V132.76C119.846 133.693 119.886 134.253 119.966 134.44C120.046 134.6 120.299 134.693 120.726 134.72L123.726 134.96V136H113.486V134.96L115.686 134.72C116.113 134.667 116.366 134.56 116.446 134.4C116.526 134.24 116.566 133.693 116.566 132.76V119.44C116.566 118.507 116.526 117.96 116.446 117.8C116.366 117.64 116.113 117.533 115.686 117.48L113.486 117.28ZM147.87 131.44C147.39 133.253 146.483 134.533 145.15 135.28C143.843 136.027 142.39 136.4 140.79 136.4C137.83 136.4 135.616 135.507 134.15 133.72C132.683 131.907 131.95 129.493 131.95 126.48V125.68C131.95 122.693 132.656 120.307 134.07 118.52C135.483 116.707 137.536 115.8 140.23 115.8C141.67 115.8 142.976 116.093 144.15 116.68C145.35 117.267 146.296 118.133 146.99 119.28C147.71 120.427 148.07 121.853 148.07 123.56C148.07 124.36 147.99 125.2 147.83 126.08H135.55V127.28C135.55 130.08 135.976 132.093 136.83 133.32C137.71 134.52 139.123 135.12 141.07 135.12C142.296 135.12 143.31 134.8 144.11 134.16C144.936 133.52 145.483 132.413 145.75 130.84L147.87 131.44ZM140.23 117.08C138.656 117.08 137.483 117.68 136.71 118.88C135.936 120.08 135.55 122.053 135.55 124.8H144.55V124.68C144.603 124.333 144.643 124 144.67 123.68C144.696 123.333 144.71 123.027 144.71 122.76C144.71 120.76 144.296 119.32 143.47 118.44C142.643 117.533 141.563 117.08 140.23 117.08ZM168.885 131.44C168.405 133.253 167.499 134.533 166.165 135.28C164.859 136.027 163.405 136.4 161.805 136.4C158.845 136.4 156.632 135.507 155.165 133.72C153.699 131.907 152.965 129.493 152.965 126.48V125.68C152.965 122.693 153.672 120.307 155.085 118.52C156.499 116.707 158.552 115.8 161.245 115.8C162.685 115.8 163.992 116.093 165.165 116.68C166.365 117.267 167.312 118.133 168.005 119.28C168.725 120.427 169.085 121.853 169.085 123.56C169.085 124.36 169.005 125.2 168.845 126.08H156.565V127.28C156.565 130.08 156.992 132.093 157.845 133.32C158.725 134.52 160.139 135.12 162.085 135.12C163.312 135.12 164.325 134.8 165.125 134.16C165.952 133.52 166.499 132.413 166.765 130.84L168.885 131.44ZM161.245 117.08C159.672 117.08 158.499 117.68 157.725 118.88C156.952 120.08 156.565 122.053 156.565 124.8H165.565V124.68C165.619 124.333 165.659 124 165.685 123.68C165.712 123.333 165.725 123.027 165.725 122.76C165.725 120.76 165.312 119.32 164.485 118.44C163.659 117.533 162.579 117.08 161.245 117.08ZM195.221 134.96V136H185.781V134.96L187.981 134.72C188.408 134.667 188.661 134.56 188.741 134.4C188.821 134.24 188.861 133.693 188.861 132.76V122.8C188.861 120.827 188.541 119.44 187.901 118.64C187.261 117.813 186.341 117.4 185.141 117.4C184.261 117.4 183.288 117.667 182.221 118.2C181.154 118.733 180.154 119.773 179.221 121.32V132.76C179.221 133.693 179.261 134.24 179.341 134.4C179.421 134.56 179.674 134.667 180.101 134.72L182.301 134.96V136H172.861V134.96L175.061 134.72C175.488 134.667 175.741 134.56 175.821 134.4C175.901 134.24 175.941 133.693 175.941 132.76V119.44C175.941 118.507 175.901 117.96 175.821 117.8C175.741 117.64 175.488 117.533 175.061 117.48L172.861 117.28V116.2H179.021V119.44C179.981 118.16 181.061 117.24 182.261 116.68C183.488 116.093 184.714 115.8 185.941 115.8C187.914 115.8 189.434 116.413 190.501 117.64C191.594 118.84 192.141 120.547 192.141 122.76V132.76C192.141 133.693 192.181 134.24 192.261 134.4C192.341 134.56 192.594 134.667 193.021 134.72L195.221 134.96Z" fill="#4F4F4F" fill-opacity="0.93"/>
<path d="M92.9605 2.58345C91.2646 5.39588 87.6382 11.1742 86.6989 11.7878M92.9605 2.58345C95.0476 3.86183 99.222 6.64869 99.222 7.56913M92.9605 2.58345C92.5691 6.67426 92.256 15.7763 94.1345 19.4581M86.6989 11.7878C86.438 9.99805 85.6814 6.41859 84.7422 6.41859M86.6989 11.7878C86.8535 12.5548 87.4293 14.4724 88.4961 16.0064M84.7422 6.41859C82.9159 7.8248 78.4807 10.7906 75.3499 11.4043C72.2192 12.0179 67.7839 18.0518 65.9577 20.9921M84.7422 6.41859C83.8291 8.97534 80.8288 13.7054 75.3499 17.924C74.5672 20.2251 72.7671 28.509 73.3932 32.4975M65.9577 20.9921C65.9577 20.9921 66.5593 15.9778 65.5663 17.924M65.9577 20.9921C65.8446 22.2193 70.8676 29.1737 73.3932 32.4975M65.5663 17.924C64.5733 19.8702 61.1833 25.9778 59.3048 27.5118C57.8699 29.4294 55 34.4534 55 36.7162C55 39.4008 55.3913 46.304 58.1308 49.7556M65.5663 17.924C63.8705 24.0602 61.2615 41.3183 68.6971 49.3721M58.1308 49.7556C56.6958 55.764 56.8002 68.0876 67.1317 70.8489M58.1308 49.7556C58.9134 47.9659 60.4006 44.1563 60.0875 43.2359M67.1317 70.8489C67.1317 76.6016 74.5672 90.0246 90.6124 87.7235M67.1317 70.8489C67.7839 69.5705 68.6188 66.3234 68.3057 65.0962M90.6124 87.7235C97.7612 91.8102 102.769 91.4841 105.875 89.9161M90.6124 87.7235C84.977 84.3486 81.2201 77.3686 80.0461 74.3005M99.222 7.56913C99.222 8.71967 103.918 0.282366 104.309 1.04939M99.222 7.56913C101.048 10.3816 102.588 16.6968 94.1345 19.4581M99.222 7.56913C102.744 7.19855 109.788 10.8639 109.788 28.49M104.309 1.04939C104.701 1.81642 112.919 6.8021 112.919 7.56913M104.309 1.04939C104.179 3.73399 105.718 9.87021 112.919 12.9383M112.919 7.56913C112.919 8.33616 113.702 3.35048 114.093 3.35048M112.919 7.56913V12.9383M114.093 3.35048C114.484 3.35048 132.486 9.4867 132.095 22.9097M114.093 3.35048C117.224 5.65156 123.877 12.4781 125.442 21.3756M132.095 22.9097C133.008 22.2705 134.756 20.762 134.443 19.8416M132.095 22.9097C132.081 24.5716 131.117 28.5857 127.377 31.347M134.443 19.8416C138.748 24.8272 147.67 35.6423 144.227 45.1535M134.443 19.8416C136.008 25.4664 138.043 38.7104 133.66 46.6875M144.227 45.1535C145.14 51.4175 144.54 64.7127 134.834 67.7808M144.227 45.1535C142.974 44.8467 141.357 41.4462 140.705 39.7843M134.834 67.7808C133.791 75.0675 127.242 89.0275 109.397 86.573M134.834 67.7808C135.147 67.1672 134.704 64.7127 134.443 63.5621M109.397 86.573C108.824 87.695 107.666 89.012 105.875 89.9161M109.397 86.573C109.886 84.179 110.104 81.8375 110.149 79.6697M73.3932 32.4975L74.1759 34.0316M68.6971 49.3721C68.958 46.0483 70.419 38.3269 74.1759 34.0316M68.6971 49.3721C62.4356 48.7585 60.3484 45.0256 60.0875 43.2359M68.6971 49.3721C70.0459 50.033 72.1966 51.3227 74.1759 53.0078M74.1759 34.0316C75.3499 33.1367 77.7763 31.1936 78.0894 30.58M60.0875 43.2359C59.8266 45.9205 59.7744 51.6732 61.6529 53.2073C70.2625 59.727 75.8196 64.636 76.1326 67.3973M76.1326 67.3973C71.1234 68.9313 68.6971 66.3746 68.3057 65.0962M76.1326 67.3973C78.6372 67.3973 79.7852 71.9994 80.0461 74.3005M76.1326 67.3973C78.6372 68.3177 78.7416 61.9002 78.4807 58.5765M68.3057 65.0962C68.0448 68.42 70.0276 74.9141 80.0461 74.3005M78.4807 58.5765C80.3592 53.9743 81.6115 48.4773 82.0028 46.304M78.4807 58.5765C77.7246 56.5018 76.0251 54.5822 74.1759 53.0078M82.0028 46.304C81.7419 51.4175 83.4116 63.2553 92.1778 69.6984C103.135 77.7521 104.701 80.4367 105.092 82.7378C105.484 85.0389 105.875 83.6714 105.875 89.9161M82.0028 46.304C82.942 52.747 87.0903 56.6589 89.047 57.8094M78.0894 30.58C76.1326 33.7708 72.6105 42.7234 74.1759 53.0078M78.0894 30.58C80.249 24.8761 85.0993 19.2891 88.4961 16.0064M78.0894 30.58C76.524 37.3298 83.1768 43.3637 86.6989 45.537M90.6124 14.0889C90.0256 14.579 89.3017 15.2279 88.4961 16.0064M90.6124 14.0889C89.9862 15.0093 92.6996 18.0518 94.1345 19.4581M90.6124 14.0889C89.8297 16.0064 89.047 21.6057 92.1778 28.6624C95.3085 35.719 89.8297 42.8524 86.6989 45.537M86.6989 45.537C87.4816 45.9939 89.3601 47.4227 90.6124 49.4823M99.6133 33.6481C97.165 36.4165 92.9085 42.5025 90.6124 49.4823M99.6133 33.6481C97.3957 37.611 95.0737 49.0653 103.527 63.1786M99.6133 33.6481C99.5147 35.1944 100.013 38.3918 102.29 41.3183M89.047 57.8094C89.1341 54.9934 89.7277 52.1715 90.6124 49.4823M89.047 57.8094C93.2366 57.8094 100.446 61.3889 103.527 63.1786M103.527 63.1786C105.985 66.6586 107.739 68.4161 108.956 69.1643M105.092 44.0029C104.043 37.8328 106.527 32.4925 109.788 28.49M105.092 44.0029C103.946 43.1794 103.026 42.263 102.29 41.3183M105.092 44.0029C107.199 45.5169 108.852 47.5741 110.015 50.1392M111.354 68.5478C111.207 69.4126 110.529 70.1312 108.956 69.1643M111.354 68.5478C112.608 60.9254 112.093 54.7218 110.015 50.1392M111.354 68.5478C112.882 68.652 113.747 68.0882 114.876 67.6045M108.956 69.1643C109.506 70.9576 110.249 74.8919 110.149 79.6697M134.443 63.5621C133.791 66.7581 130.53 73.5335 122.703 75.0675C112.919 76.9851 112.075 77.7521 110.149 79.6697M134.443 63.5621C133.139 65.7354 128.964 69.6217 122.703 67.7808M122.703 67.7808C118.271 66.478 116.349 66.9732 114.876 67.6045M122.703 67.7808C129.033 61.7687 129.643 54.6877 128.592 49.4823M122.703 67.7808C136.791 63.4854 140.574 47.3267 140.705 39.7843M112.919 12.9383C114.876 14.7281 118.554 18.9978 117.615 21.7591M117.615 21.7591C115.427 23.0005 112.365 25.3276 109.788 28.49M117.615 21.7591C118.554 20.8387 120.876 17.7962 121.92 16.3899M94.1345 19.8416C97.4845 21.2478 103.806 27.5118 102.29 41.3183M125.442 21.3756C124.79 19.8416 123.172 16.6968 121.92 16.3899M125.442 21.3756C126.173 22.5691 127.176 25.8128 127.377 31.347M121.92 16.3899C121.92 18.9467 120.746 25.7477 116.05 32.4975C110.18 40.9348 114.876 46.304 112.919 46.6875M112.919 46.6875C112.288 48.057 110.823 50.6647 110.015 50.1392M112.919 46.6875C115.789 44.8978 121.842 40.3212 123.094 36.3327M123.094 36.3327C122.572 40.6792 119.963 51.6732 113.702 60.8775C113.31 62.294 112.997 65.6225 114.876 67.6045M123.094 36.3327C123.407 40.3212 125.573 43.1081 126.616 44.0029M126.616 44.0029C127.325 38.9054 127.499 34.7046 127.377 31.347M126.616 44.0029C127.367 45.3149 128.136 47.2217 128.592 49.4823M133.66 46.6875C133.152 47.4001 131.426 48.9568 128.592 49.4823M133.66 46.6875C136.53 45.9205 141.957 43.466 140.705 39.7843" stroke="#006F06"/>
<line y1="100" x2="200" y2="100" stroke="#006F06" stroke-width="2"/>
</svg>
